<svg xmlns="http://www.w3.org/2000/svg" viewBox="0 0 179.09 179.09"><path class="cls-1" d="M113,123.46H66.09a6,6,0,0,1,0-12H113a6,6,0,0,1,0,12Zm6-33.92a6,6,0,0,0-6-6H66.09a6,6,0,0,0,0,12H113A6,6,0,0,0,119,89.54Zm0-27.91a6,6,0,0,0-6-6H66.09a6,6,0,0,0,0,12H113A6,6,0,0,0,119,61.63Zm54.09,49.83h-35a6,6,0,0,0,0,12h21.17a77.5,77.5,0,0,1-147-27.92H.2a89.53,89.53,0,0,0,166.89,38.73v18.21a6,6,0,0,0,12,0v-35A6,6,0,0,0,173.09,111.46ZM89.54,0A89.45,89.45,0,0,0,12,44.81V26.61a6,6,0,0,0-12,0v35a6,6,0,0,0,6,6H41a6,6,0,1,0,0-12H19.85a77.5,77.5,0,0,1,147,27.91h12A89.55,89.55,0,0,0,89.54,0Z"/></svg>