<svg xmlns="http://www.w3.org/2000/svg" viewBox="0 0 179.09 178.68"><path d="M174.7,161.67l-8.06,7.59a45.26,45.26,0,0,1-11.29,6.39,46.1,46.1,0,0,1-11.53,2.89c-1.8.2-43.63,4.12-95.53-47.78C10.75,93.21-3.09,65.54.56,35.27A47.36,47.36,0,0,1,3.42,23.78,44.92,44.92,0,0,1,9.85,12.45l7.58-8C23.14-1.31,32.26-1.48,37.76,4L65.42,31.68A14.41,14.41,0,0,1,65.05,52l-4.6,4.6L51.1,66c.48.85,1,1.75,1.5,2.69,4.89,8.8,11.58,20.86,24.28,33.57s24.72,19.37,33.52,24.24l2.75,1.53,13.93-13.93c5.7-5.7,14.83-5.87,20.33-.38l27.66,27.66A14.42,14.42,0,0,1,174.7,161.67Z"/></svg>