<svg xmlns="http://www.w3.org/2000/svg" viewBox="0 0 247.2 175"><path d="M247.2,8.31A8.31,8.31,0,0,0,238.9,0H8.3A8.31,8.31,0,0,0,0,8.31V166.69H0a8,8,0,0,0,.13,1.39s0,.11,0,.16a8.08,8.08,0,0,0,.37,1.3,1.46,1.46,0,0,0,.07.19A7.52,7.52,0,0,0,1.18,171a1.74,1.74,0,0,1,.11.18,9,9,0,0,0,.84,1.11l.07.09.11.1c.11.12.23.24.35.35l.27.24c.12.1.24.2.37.29l.3.23.39.24.32.2.47.23.27.13a8.38,8.38,0,0,0,2.41.62A4.52,4.52,0,0,0,8,175l.32,0H238.9l.4,0,.44,0a8.46,8.46,0,0,0,2.41-.62,2.44,2.44,0,0,0,.28-.14l.46-.22.33-.2.37-.24a3.55,3.55,0,0,0,.31-.23c.12-.1.25-.19.36-.29s.18-.16.28-.24l.35-.35.11-.1.06-.09a9,9,0,0,0,.84-1.11A1.74,1.74,0,0,0,246,171a8.51,8.51,0,0,0,.6-1.21,1.46,1.46,0,0,0,.07-.19,9.25,9.25,0,0,0,.37-1.3c0-.05,0-.11,0-.16a8,8,0,0,0,.13-1.39h0ZM124,98,30.5,16.62H216.82ZM84.1,85.29,16.59,147.71V26.54Zm12.6,11,21.89,19a8.28,8.28,0,0,0,10.91,0l21.34-18.71,66.84,61.8H29.52Zm66.69-10.69L230.6,26.63V147.71Z"/></svg>