<svg xmlns="http://www.w3.org/2000/svg" viewBox="0 0 179.09 179.09"><path d="M127,85.85A41.12,41.12,0,1,1,85.85,127,41.16,41.16,0,0,1,127,85.85m0-11A52.12,52.12,0,1,0,179.09,127,52.11,52.11,0,0,0,127,74.85Zm5.5,52.12V103.7a5.5,5.5,0,0,0-11,0V127a5.5,5.5,0,0,0,11,0Zm23.27,0a5.5,5.5,0,0,0-5.5-5.5H127a5.5,5.5,0,0,0,0,11h23.27A5.5,5.5,0,0,0,155.74,127ZM82.15,144.71H59.09V119.46H80.74a49.74,49.74,0,0,1,2.88-9.33H59.09V91.58H94.53v2.48a49.58,49.58,0,0,1,19.3-11.81h-9.91V64.06H144.5v18a49.57,49.57,0,0,1,9.39,4.11V18.36a4.68,4.68,0,0,0-4.69-4.66H130.86V4.16A4.16,4.16,0,0,0,126.7,0H108.08a4.16,4.16,0,0,0-4.16,4.16V13.7H49.42V4.16A4.16,4.16,0,0,0,45.26,0H26.64a4.16,4.16,0,0,0-4.16,4.16V13.7H4.69A4.68,4.68,0,0,0,0,18.36v131A4.68,4.68,0,0,0,4.69,154H86.28A49.38,49.38,0,0,1,82.15,144.71ZM94.53,82.25H59.09V64.06H94.53Zm17.7-73.94h10.32v19H112.23Zm-81.44,0H41.11v19H30.79ZM49.7,144.71H9.39V119.46H49.7Zm0-34.58H9.39V91.58H49.7Zm0-27.88H9.39V64.06H49.7ZM9.39,54.73V23H22.48v8.42a4.16,4.16,0,0,0,4.16,4.16H45.26a4.16,4.16,0,0,0,4.16-4.16V23h54.5v8.42a4.16,4.16,0,0,0,4.16,4.16H126.7a4.16,4.16,0,0,0,4.16-4.16V23H144.5v31.7H9.39Z"/></svg>