<svg xmlns="http://www.w3.org/2000/svg" viewBox="0 0 135.22 179.09"><path d="M67.61,0A67.69,67.69,0,0,0,2.21,84.85c0,.08,0,.15,0,.23s.26,1,.65,2.22c.09.33.2.65.3,1,.28.86.63,1.87,1,3,5,13.87,20.4,48.85,59.2,86.11a6,6,0,0,0,8.22.07C120.73,132,132.49,86.93,133,85c0-.06,0-.12,0-.17A67.7,67.7,0,0,0,67.61,0Zm53.12,84.15,0,.16c-1.83,5.82-7.85,22.55-21.89,43.4a232.71,232.71,0,0,1-31.11,37,254.82,254.82,0,0,1-30.46-36.62A194.54,194.54,0,0,1,16.24,89c-1-2.57-1.62-4.49-2-5.65a55.61,55.61,0,1,1,106.48.81ZM67.61,102.27a34.59,34.59,0,1,1,34.54-34.58A34.6,34.6,0,0,1,67.61,102.27Zm0-57.15A22.57,22.57,0,1,0,90.15,67.69,22.58,22.58,0,0,0,67.61,45.12Z"/></svg>