<svg xmlns="http://www.w3.org/2000/svg" xml:space="preserve" width="24px" height="24px" version="1.1" style="shape-rendering: geometricPrecision; text-rendering: geometricPrecision; image-rendering: optimizeQuality; fill-rule: evenodd; clip-rule: evenodd;" viewBox="0 0 24 24" xmlns:xlink="http://www.w3.org/1999/xlink" xmlns:xodm="http://www.corel.com/coreldraw/odm/2003"><path class="fil0" d="M17.25 24c-0.78,0 -1.54,-0.14 -2.3,-0.41 -3.3,-1.2 -6.38,-3.16 -8.88,-5.66 -2.5,-2.5 -4.46,-5.58 -5.66,-8.88 -0.39,-1.07 -0.5,-2.17 -0.34,-3.27 0.15,-1.03 0.55,-2.03 1.16,-2.9 0.6,-0.86 1.41,-1.58 2.34,-2.08 0.99,-0.53 2.06,-0.8 3.2,-0.8 0.35,0 0.66,0.25 0.73,0.59l1.18 5.5c0.05,0.24 -0.02,0.5 -0.2,0.68l-2.01 2.01c1.89,3.78 4.97,6.86 8.74,8.75l2.02 -2.01c0.18,-0.18 0.44,-0.25 0.68,-0.2l5.5 1.18c0.34,0.07 0.59,0.38 0.59,0.73 0,1.14 -0.27,2.21 -0.8,3.2 -0.5,0.93 -1.22,1.74 -2.08,2.34 -0.87,0.61 -1.87,1.01 -2.9,1.16 -0.33,0.05 -0.65,0.07 -0.97,0.07l0 0zm-11.08 -22.47c-1.5,0.17 -2.83,0.95 -3.72,2.22 -0.99,1.41 -1.22,3.16 -0.63,4.78 2.31,6.37 7.28,11.34 13.65,13.65 1.62,0.59 3.37,0.36 4.78,-0.63 1.27,-0.89 2.05,-2.22 2.22,-3.72l-4.47 -0.96 -2.1 2.1c-0.23,0.23 -0.57,0.29 -0.85,0.15 -4.46,-2.1 -8.07,-5.71 -10.17,-10.17 -0.14,-0.28 -0.08,-0.62 0.15,-0.85l2.1 -2.1 -0.96 -4.47z"></path></svg>