<svg xmlns="http://www.w3.org/2000/svg" viewBox="0 0 142.7 179.09"><path d="M142.67,47.76c0-.11,0-.23,0-.34s0-.16,0-.24-.06-.27-.1-.4a1.36,1.36,0,0,0,0-.17c0-.13-.09-.26-.14-.39a.88.88,0,0,0-.05-.15,3,3,0,0,0-.17-.36.89.89,0,0,0-.08-.17c-.05-.11-.12-.21-.18-.32l-.11-.19-.2-.27-.14-.2-.22-.25-.14-.16L100.21,1.8h0a3.83,3.83,0,0,0-.29-.28l-.13-.12a4.46,4.46,0,0,0-.43-.33l0,0a5.86,5.86,0,0,0-2.72-1L96,0H5.91A6,6,0,0,0,0,6V173.07a6,6,0,0,0,5.91,6H136.78a6,6,0,0,0,5.92-6V48.36Q142.7,48.06,142.67,47.76Zm-40.77-27,20.81,21.6H101.9ZM11.82,167.06V12H90.08V48.36a6,6,0,0,0,5.91,6h34.88v65H85.43a6,6,0,0,0,0,12h45.44v10.11H85.43a6,6,0,0,0,0,12h45.44v13.6ZM69.28,87.13c0,14.39-11.7,23-23,23a21.67,21.67,0,0,1-15.66-6.19A5,5,0,0,1,38,97.19a12.14,12.14,0,0,0,8.29,2.94c5.39,0,13-4,13-13,0-9.73-8.93-13-13-13a13.06,13.06,0,0,0-8.42,3.07,5,5,0,0,1-8.56-3.51v-24a5,5,0,0,1,5-5H63.2a5,5,0,0,1,0,10H39.3V65.2a23,23,0,0,1,7-1.07C57.34,64.13,69.28,72.92,69.28,87.13Zm9.87-6.66a5,5,0,0,1,5-5h6.22V69.26a5,5,0,1,1,10,0v6.21h6.22a5,5,0,0,1,0,10h-6.22v6.22a5,5,0,0,1-10,0V85.47H84.15A5,5,0,0,1,79.15,80.47Z"/></svg>