<svg xmlns="http://www.w3.org/2000/svg" viewBox="0 0 362.35 399.79"><path d="M249.61,235.84H333v22.89H249.5s-68.33,7.63-68.33,76.84c0-69.57-68.55-76.84-68.55-76.84H29.39V235.84h83.34s68.44,5.73,68.44,73.45C181.17,241.56,249.61,235.84,249.61,235.84ZM181.17,348.1c0-67.72-68.55-83.39-68.55-83.39H62.42V399.79H299.93V264.71H249.5S181.17,280.37,181.17,348.1ZM362.35,202.34v27.54H249.61s-68.44-2.32-68.44,66.89c0-69.57-68.44-66.89-68.44-66.89H0V202.34H62.42V118.76a118.76,118.76,0,1,1,237.51,0v83.58Zm-88.17,0V112.67H274a93,93,0,0,0-185.57,0h-.22v89.67h26.57c9.53.31,50.87-2.49,66.43,62.51,15.57-63.07,53.91-61.91,65.23-62.51ZM135.49,89.94l-11.77,7.92,2.48,4L133.51,97v31.46H139V89.94Zm25,25.41a10,10,0,0,0,2.36-.28l-9.51,13.37h6.21l10.17-14.8c1.43-2.09,4.35-5.94,4.35-11.33,0-7-5.17-13-13.58-13s-13.53,6-13.53,13C147,110.12,153,115.35,160.52,115.35Zm0-21.17a8.14,8.14,0,1,1-8.14,8.13A7.93,7.93,0,0,1,160.52,94.18Zm33.55-4.9c-11.06,0-15,10.23-15,19.91s4,20,15,20,15-10.28,15-20S205.12,89.28,194.07,89.28Zm0,34.7c-7.37,0-9.52-8.19-9.52-14.79s2.15-14.79,9.52-14.79,9.51,8.19,9.51,14.79S201.43,124,194.07,124Zm48.67-9.07h-5v-25h-7.86L213.76,115.4v4.4h18.47v8.64h5.5V119.8h5Zm-22.93,0,12.42-19.58v19.58Z"/></svg>