<?xml version="1.0" encoding="UTF-8" standalone="no"?>
<svg
   xmlns:dc="http://purl.org/dc/elements/1.1/"
   xmlns:cc="http://creativecommons.org/ns#"
   xmlns:rdf="http://www.w3.org/1999/02/22-rdf-syntax-ns#"
   xmlns:svg="http://www.w3.org/2000/svg"
   xmlns="http://www.w3.org/2000/svg"
   xmlns:sodipodi="http://sodipodi.sourceforge.net/DTD/sodipodi-0.dtd"
   xmlns:inkscape="http://www.inkscape.org/namespaces/inkscape"
   version="1.1"
   id="svg845"
   width="46.222221"
   height="46.222221"
   viewBox="0 0 46.222221 46.222221"
   sodipodi:docname="scrollup.svg"
   inkscape:version="1.0.2-2 (e86c870879, 2021-01-15)">
  <metadata
     id="metadata851">
    <rdf:RDF>
      <cc:Work
         rdf:about="">
        <dc:format>image/svg+xml</dc:format>
        <dc:type
           rdf:resource="http://purl.org/dc/dcmitype/StillImage" />
        <dc:title></dc:title>
      </cc:Work>
    </rdf:RDF>
  </metadata>
  <defs
     id="defs849" />
  <sodipodi:namedview
     pagecolor="#ffffff"
     bordercolor="#666666"
     borderopacity="1"
     objecttolerance="10"
     gridtolerance="10"
     guidetolerance="10"
     inkscape:pageopacity="0"
     inkscape:pageshadow="2"
     inkscape:window-width="2560"
     inkscape:window-height="1361"
     id="namedview847"
     showgrid="false"
     inkscape:zoom="11.313709"
     inkscape:cx="15.821113"
     inkscape:cy="27.730289"
     inkscape:window-x="-9"
     inkscape:window-y="-9"
     inkscape:window-maximized="1"
     inkscape:current-layer="g853" />
  <g
     inkscape:groupmode="layer"
     inkscape:label="Image"
     id="g853">
    <ellipse
       style="fill:#9a3231;fill-opacity:0.992509;stroke:#9a3231;stroke-width:0.979978;stroke-opacity:1"
       id="path1418"
       cx="23.125267"
       cy="23.022753"
       rx="22.622744"
       ry="22.628603" />
    <path
       id="path4610"
       style="fill:#ffffff;fill-opacity:1;stroke:none;stroke-width:1px;stroke-linecap:butt;stroke-linejoin:miter;stroke-opacity:1"
       d="M 23.005859 10.619141 C 22.978482 10.620449 22.946851 10.63154 22.917969 10.636719 C 22.910097 10.63856 22.902296 10.64046 22.894531 10.642578 C 22.718643 10.680323 22.517208 10.783237 22.265625 11.015625 L 15.21875 18.0625 C 15.677787 19.331865 16.285087 19.618417 17.210938 20.054688 L 21.1875 16.078125 L 21.1875 35.773438 C 21.326767 35.894401 21.467194 36.00503 21.609375 36.103516 C 21.745652 36.199565 21.879167 36.276439 22.011719 36.34375 C 22.026148 36.351128 22.040223 36.360083 22.054688 36.367188 C 22.175984 36.426216 22.295691 36.471347 22.414062 36.507812 C 22.456291 36.521328 22.498459 36.533935 22.541016 36.544922 C 22.640299 36.56921 22.738579 36.586265 22.835938 36.595703 C 22.905657 36.603593 22.976209 36.606835 23.046875 36.607422 C 23.117541 36.606835 23.188093 36.603593 23.257812 36.595703 C 23.355171 36.586265 23.453451 36.56921 23.552734 36.544922 C 23.595291 36.533935 23.637459 36.521328 23.679688 36.507812 C 23.798059 36.471347 23.917766 36.426216 24.039062 36.367188 C 24.053527 36.360083 24.067602 36.351128 24.082031 36.34375 C 24.214583 36.276439 24.348098 36.199565 24.484375 36.103516 C 24.626556 36.00503 24.766983 35.894401 24.90625 35.773438 L 24.90625 16.078125 L 28.882812 20.054688 C 29.808663 19.618417 30.415963 19.331865 30.875 18.0625 L 23.828125 11.015625 C 23.576542 10.783237 23.375107 10.680323 23.199219 10.642578 C 23.191454 10.64046 23.183653 10.63856 23.175781 10.636719 C 23.131604 10.628797 23.087629 10.622165 23.046875 10.623047 C 23.032765 10.622742 23.020357 10.618448 23.005859 10.619141 z " />
  </g>
</svg>
