<svg xmlns="http://www.w3.org/2000/svg" viewBox="0 0 328 328"><path class="cls-1" d="M164,0A164,164,0,1,0,328,164,164,164,0,0,0,164,0Zm62.61,133.64a13.5,13.5,0,0,1-19.06,1.12L177.5,108V251a13.5,13.5,0,0,1-27,0V108l-30,26.72a13.5,13.5,0,0,1-17.94-20.18L155,67.89c.06,0,.12-.09.18-.15l.45-.36c.13-.1.25-.21.38-.3l.24-.17.44-.29.44-.28.25-.14.46-.24.45-.23.27-.12.49-.2.44-.17.31-.1.51-.15.43-.12.34-.07.5-.1.44-.07.37,0,.48,0,.44,0h1.31l.45,0,.48,0,.37,0,.44.08.51.1.32.07.45.13.5.14.3.1.45.18.49.19.27.12c.15.07.3.16.46.23l.45.24.25.14.44.28c.15.1.3.19.44.3l.24.16c.13.09.25.2.38.3l.45.36c.06.06.12.1.18.15l52.52,46.69a13.5,13.5,0,0,1,1.12,19.06Z"/></svg>